<svg xmlns="http://www.w3.org/2000/svg" viewBox="0 0 188.12 168.69"><defs><style>.cls-1{fill:#231f20;}</style></defs><title>Recurso 7</title><g id="Capa_2" data-name="Capa 2"><g id="Layer_1" data-name="Layer 1"><path class="cls-1" d="M170.82,91s-24.16,24.06-26,25.74c-9.39,8.42-16.34,1.5-16.34,1.5l18.12,18s7.27,7,16.43-1.61c2.5-2.34,25.12-24.88,25.12-24.88Z"/><path class="cls-1" d="M172.64,54.19,118.45,0,98.93,19.49l0,0s-24.16,24.06-26,25.75c-9.38,8.42-16.33,1.5-16.33,1.5l4.2,4.18-.12-.06.26.19L74.63,64.73s7.27,7,16.43-1.59a8.44,8.44,0,0,0,1.22-.94c1-.94,5-5,9.49-9.61L116.46,38l17.78,17.77c-3.12,3.1-23.89,23.78-25.63,25.34-9.38,8.42-16.33,1.5-16.33,1.5l18.11,18s7.27,7,16.44-1.61c2.26-2.11,21-20.75,24.53-24.29Z"/><path class="cls-1" d="M17.69,79.33S43.2,54.41,45.08,52.72c9.38-8.42,16.33-1.5,16.33-1.5l-18.11-18S36,26.23,26.86,34.8C24.36,37.13,0,61.67,0,61.67Z"/><path class="cls-1" d="M114.77,104.44s-7.27-7-16.44,1.61c-2.5,2.33-27,26.79-27,26.79L53.75,115.33l1.11-1.1,0,0s24.16-24.05,26-25.74C90.3,80.1,97.26,87,97.26,87L79.14,69s-7.27-7-16.44,1.61c-2.49,2.34-25.11,24.88-25.11,24.88l.12.13L17.65,115.43,71.5,168.69s43.17-43,45.05-44.72c9.38-8.42,16.33-1.5,16.33-1.5Z"/></g></g></svg>