<svg xmlns="http://www.w3.org/2000/svg" viewBox="0 0 592.48 141.71"><defs><style>.cls-1{fill:#fff;}</style></defs><title>Recurso 2</title><g id="Capa_2" data-name="Capa 2"><g id="Layer_1" data-name="Layer 1"><path class="cls-1" d="M143.5,76.41S123.21,96.62,121.63,98c-7.88,7.08-13.72,1.26-13.72,1.26l15.22,15.15s6.11,5.85,13.81-1.35c2.1-2,21.1-20.9,21.1-20.9Z"/><path class="cls-1" d="M145,45.52,99.51,0,83.11,16.37l0,0S62.78,36.55,61.2,38C53.32,45,47.48,39.23,47.48,39.23L51,42.74l-.1,0,.22.16L62.7,54.38S68.8,60.22,76.5,53a7.06,7.06,0,0,0,1-.78c.84-.79,4.23-4.24,8-8.08,5-4.93,10.47-10.4,12.35-12.28l14.94,14.93c-2.62,2.61-20.08,20-21.53,21.29-7.89,7.08-13.73,1.26-13.73,1.26L92.74,84.53s6.11,5.85,13.81-1.35c1.9-1.77,17.62-17.43,20.61-20.41Z"/><path class="cls-1" d="M14.86,66.65s21.43-20.94,23-22.36C45.75,37.22,51.59,43,51.59,43L36.37,27.88S30.26,22,22.56,29.23C20.46,31.19,0,51.81,0,51.81Z"/><path class="cls-1" d="M96.41,87.74s-6.1-5.85-13.81,1.35C80.51,91.05,60,111.6,60,111.6L45.15,96.89l.93-.93,0,0S66.41,75.78,68,74.37c7.88-7.08,13.72-1.26,13.72-1.26L66.49,58s-6.11-5.84-13.81,1.36c-2.1,2-21.1,20.9-21.1,20.9l.1.1L14.83,97l45.24,44.74s36.26-36.15,37.84-37.56c7.88-7.08,13.72-1.26,13.72-1.26Z"/><path class="cls-1" d="M223,94.46H212.28V80.69l-7.9,13.77h-7l-7.9-13.77V94.46H178.7V65.51h13.23l8.94,16.54,8.93-16.54H223Z"/><path class="cls-1" d="M228,79.94c0-10,5.46-14.85,18.2-14.85s18.2,4.84,18.2,14.85-5.5,14.93-18.2,14.93S228,90,228,79.94Zm25.64,0c0-3-1.07-5.75-7.44-5.75s-7.45,2.69-7.45,5.75,1.12,5.83,7.45,5.83S253.64,83,253.64,79.94Z"/><path class="cls-1" d="M307.08,65.51V94.46H293L280.53,77.38V94.46H269.78V65.51h14.06l12.49,17.08V65.51Z"/><path class="cls-1" d="M331.07,94.87c-12.74,0-18.2-4.84-18.2-14.93V65.51h10.76V79.94c0,3.1,1.11,5.83,7.44,5.83s7.45-2.77,7.45-5.83V65.51h10.75V79.94C349.27,90,343.77,94.87,331.07,94.87Z"/><path class="cls-1" d="M399.4,94.46H388.65V80.69l-7.9,13.77h-7l-7.9-13.77V94.46H355.06V65.51H368.3l8.93,16.54,8.93-16.54H399.4Z"/><path class="cls-1" d="M416,73.78v2.69H435.8v7H416v2.69H435.8v8.27H405.19V65.51H435.8v8.27Z"/><path class="cls-1" d="M478.48,65.51V94.46H464.42L451.93,77.38V94.46H441.18V65.51h14.06l12.49,17.08V65.51Z"/><path class="cls-1" d="M519.43,74.61H507V94.46H496.27V74.61H483.86v-9.1h35.57Z"/><path class="cls-1" d="M543.92,89.25H531.59l-2,5.21H517.78l12-28.95h16l12,28.95H545.9Zm-2.81-7.45L537.76,73l-3.35,8.85Z"/><path class="cls-1" d="M592.48,85.36v9.1H562.7V65.51h10.75V85.36Z"/></g></g></svg>