<svg xmlns="http://www.w3.org/2000/svg" viewBox="0 0 374.17 214.33"><defs><style>.cls-1{fill:#231f20;}</style></defs><title>Recurso 5</title><g id="Capa_2" data-name="Capa 2"><g id="Layer_1" data-name="Layer 1"><path class="cls-1" d="M263.84,91s-24.15,24.06-26,25.74c-9.38,8.42-16.33,1.5-16.33,1.5l18.11,18s7.27,7,16.44-1.61c2.5-2.34,25.11-24.88,25.11-24.88Z"/><path class="cls-1" d="M265.66,54.19,211.47,0,192,19.49l0,0s-24.15,24.06-26,25.75c-9.38,8.42-16.33,1.5-16.33,1.5l4.19,4.18-.12-.06.26.19,13.78,13.72s7.26,7,16.42-1.59a8.52,8.52,0,0,0,1.23-.94c1-.94,5-5,9.48-9.61,5.92-5.87,12.45-12.38,14.69-14.61l17.79,17.77c-3.12,3.1-23.9,23.78-25.63,25.34-9.38,8.42-16.33,1.5-16.33,1.5l18.11,18s7.27,7,16.44-1.61c2.26-2.11,21-20.75,24.53-24.29Z"/><path class="cls-1" d="M110.72,79.33s25.5-24.92,27.38-26.61c9.38-8.42,16.33-1.5,16.33-1.5l-18.11-18s-7.27-6.95-16.44,1.62C117.39,37.13,93,61.67,93,61.67Z"/><path class="cls-1" d="M207.79,104.44s-7.27-7-16.44,1.61c-2.49,2.33-27,26.79-27,26.79l-17.62-17.51,1.11-1.1,0,0s24.16-24.05,26-25.74c9.38-8.42,16.33-1.5,16.33-1.5L172.17,69s-7.27-7-16.44,1.61c-2.5,2.34-25.12,24.88-25.12,24.88l.12.13-20,19.83,53.85,53.26s43.16-43,45-44.72c9.38-8.42,16.33-1.5,16.33-1.5Z"/><path class="cls-1" d="M40.09,214H30.37V201.5L23.23,214H16.87L9.72,201.5V214H0V187.78H12l8.08,15,8.07-15h12Z"/><path class="cls-1" d="M44.58,200.83c0-9.09,4.94-13.43,16.46-13.43s16.46,4.38,16.46,13.43-5,13.5-16.46,13.5S44.58,210,44.58,200.83Zm23.19,0c0-2.73-1-5.2-6.73-5.2s-6.73,2.43-6.73,5.2,1,5.28,6.73,5.28S67.77,203.6,67.77,200.83Z"/><path class="cls-1" d="M116.09,187.78V214H103.38l-11.3-15.45V214H82.36V187.78H95.08l11.29,15.45V187.78Z"/><path class="cls-1" d="M137.79,214.33c-11.52,0-16.46-4.37-16.46-13.5V187.78h9.73v13.05c0,2.81,1,5.28,6.73,5.28s6.73-2.51,6.73-5.28V187.78h9.72v13.05C154.24,209.92,149.27,214.33,137.79,214.33Z"/><path class="cls-1" d="M199.58,214h-9.73V201.5L182.71,214h-6.36l-7.14-12.46V214h-9.73V187.78h12l8.08,15,8.08-15h12Z"/><path class="cls-1" d="M214.54,195.26v2.43h18v6.36h-18v2.43h18V214H204.81V187.78h27.68v7.48Z"/><path class="cls-1" d="M271.09,187.78V214H258.37l-11.29-15.45V214h-9.73V187.78h12.72l11.29,15.45V187.78Z"/><path class="cls-1" d="M308.12,196H296.9v18h-9.73V196H276v-8.23h32.17Z"/><path class="cls-1" d="M330.26,209.25H319.11L317.32,214h-10.7l10.85-26.18h14.44L342.75,214H332.06Zm-2.54-6.74-3-8-3,8Z"/><path class="cls-1" d="M374.17,205.73V214H347.24V187.78H357v17.95Z"/></g></g></svg>